<?xml version="1.0" encoding="UTF-8" standalone="no"?>
<svg
   xmlns:dc="http://purl.org/dc/elements/1.1/"
   xmlns:cc="http://creativecommons.org/ns#"
   xmlns:rdf="http://www.w3.org/1999/02/22-rdf-syntax-ns#"
   xmlns:svg="http://www.w3.org/2000/svg"
   xmlns="http://www.w3.org/2000/svg"
   xmlns:xlink="http://www.w3.org/1999/xlink"
   xmlns:sodipodi="http://sodipodi.sourceforge.net/DTD/sodipodi-0.dtd"
   xmlns:inkscape="http://www.inkscape.org/namespaces/inkscape"
   inkscape:export-ydpi="192"
   inkscape:export-xdpi="192"
   inkscape:export-filename="/home/sardylan/develop/stationlog/hamutility/hamutility/static/description/icon.png"
   inkscape:version="0.92.3 (2405546, 2018-03-11)"
   sodipodi:docname="icon.svg"
   id="svg844"
   version="1.1"
   viewBox="0 0 70 70"
   height="70"
   width="70">
  <sodipodi:namedview
     pagecolor="#ffffff"
     bordercolor="#666666"
     borderopacity="1"
     objecttolerance="10"
     gridtolerance="10"
     guidetolerance="10"
     inkscape:pageopacity="0"
     inkscape:pageshadow="2"
     inkscape:window-width="1920"
     inkscape:window-height="1009"
     id="namedview846"
     showgrid="false"
     inkscape:zoom="8.0000004"
     inkscape:cx="18.034738"
     inkscape:cy="28.777103"
     inkscape:window-x="0"
     inkscape:window-y="0"
     inkscape:window-maximized="1"
     inkscape:current-layer="svg844" />
  <metadata
     id="metadata848">
    <rdf:RDF>
      <cc:Work
         rdf:about="">
        <dc:format>image/svg+xml</dc:format>
        <dc:type
           rdf:resource="http://purl.org/dc/dcmitype/StillImage" />
        <dc:title />
      </cc:Work>
    </rdf:RDF>
  </metadata>
  <defs
     id="defs823">
    <path
       id="a"
       d="M4 0h61c4 0 5 1 5 5v60c0 4-1 5-5 5H4c-3 0-4-1-4-5V5c0-4 1-5 4-5z" />
    <linearGradient
       id="c"
       x1="70"
       x2="0"
       y1="0"
       y2="70"
       gradientUnits="userSpaceOnUse">
      <stop
         offset="0%"
         stop-color="#269396"
         id="stop816" />
      <stop
         offset="100%"
         stop-color="#218689"
         id="stop818" />
    </linearGradient>
    <path
       id="d"
       d="M26.971 49.017c0 2.879-2.4 5.212-5.36 5.212-2.961 0-5.361-2.333-5.361-5.212 0-2.878 2.4-5.211 5.36-5.211 2.961 0 5.361 2.333 5.361 5.211zm14.704 3.846c-.7-12.582-11.065-22.672-24.02-23.352-.764-.04-1.405.557-1.405 1.301v3.912c0 .685.543 1.26 1.246 1.304 9.361.592 16.864 7.87 17.475 16.99.046.683.637 1.211 1.341 1.211h4.024c.766 0 1.38-.623 1.339-1.366zm12.074.023c-.702-19.028-16.45-34.428-36.118-35.114-.755-.027-1.381.567-1.381 1.302v3.912c0 .702.572 1.273 1.293 1.302 16.003.638 28.848 13.128 29.504 28.684.03.701.617 1.257 1.339 1.257h4.023c.757 0 1.367-.608 1.34-1.343z" />
    <path
       id="e"
       d="M26.971 47.017c0 2.879-2.4 5.212-5.36 5.212-2.961 0-5.361-2.333-5.361-5.212 0-2.878 2.4-5.211 5.36-5.211 2.961 0 5.361 2.333 5.361 5.211zm14.704 3.846c-.7-12.582-11.065-22.672-24.02-23.352-.764-.04-1.405.557-1.405 1.301v3.912c0 .685.543 1.26 1.246 1.304 9.361.592 16.864 7.87 17.475 16.99.046.683.637 1.211 1.341 1.211h4.024c.766 0 1.38-.623 1.339-1.366zm12.074.023c-.702-19.028-16.45-34.428-36.118-35.114-.755-.027-1.381.567-1.381 1.302v3.912c0 .702.572 1.273 1.293 1.302 16.003.638 28.848 13.128 29.504 28.684.03.701.617 1.257 1.339 1.257h4.023c.757 0 1.367-.608 1.34-1.343z" />
    <mask
       fill="#fff"
       id="b">
      <use
         id="use825"
         xlink:href="#a" />
    </mask>
    <path
       d="M4,5.35309892e-14 C36.4160122,9.87060235e-15 58.0836068,-3.97961823e-14 65,5.07020818e-14 C69,6.733808e-14 70,1 70,5 C70,43.0488877 70,62.4235458 70,65 C70,69 69,70 65,70 C61,70 9,70 4,70 C1,70 7.10542736e-15,69 7.10542736e-15,65 C7.25721566e-15,62.4676575 3.83358709e-14,41.8005206 3.60818146e-14,5 C-1.13686838e-13,1 1,5.75716207e-14 4,5.35309892e-14 Z"
       id="icon-a" />
    <linearGradient
       y2="70"
       y1="0"
       x2="0"
       x1="70"
       id="icon-c"
       gradientUnits="userSpaceOnUse"
       gradientTransform="translate(61.617647,44.364706)">
      <stop
         id="stop872"
         stop-color="#269396"
         offset="0%" />
      <stop
         id="stop874"
         stop-color="#218689"
         offset="100%" />
    </linearGradient>
    <path
       d="M35.5,22.75 C39.6529297,22.75 43.0195312,26.1166016 43.0195312,30.2695312 C43.0195312,34.4224609 39.6529297,37.7890625 35.5,37.7890625 C31.3470703,37.7890625 27.9804687,34.4224609 27.9804687,30.2695312 C27.9804687,26.1166016 31.3470703,22.75 35.5,22.75 Z M43.6256055,38.3165755 L40.7623112,37.6007161 C37.2411654,40.1333659 32.9730794,39.5681836 30.2377604,37.6007161 L27.3744661,38.3165755 C25.0790039,38.8904232 23.46875,40.9527799 23.46875,43.3188542 L23.46875,47.671875 C23.46875,49.0957161 24.6230339,50.25 26.046875,50.25 L44.953125,50.25 C46.3769661,50.25 47.53125,49.0957161 47.53125,47.671875 L47.53125,43.3188542 C47.53125,40.9527799 45.9209961,38.8904232 43.6256055,38.3165755 Z M50.3958333,39.6510417 C53.1644531,39.6510417 55.4088542,37.4066406 55.4088542,34.6380208 C55.4088542,31.869401 53.1644531,29.625 50.3958333,29.625 C47.6272135,29.625 45.3828125,31.869401 45.3828125,34.6380208 C45.3828125,37.4066406 47.6272135,39.6510417 50.3958333,39.6510417 Z M20.6041667,39.6510417 C23.3727865,39.6510417 25.6171875,37.4066406 25.6171875,34.6380208 C25.6171875,31.869401 23.3727865,29.625 20.6041667,29.625 C17.8355469,29.625 15.5911458,31.869401 15.5911458,34.6380208 C15.5911458,37.4066406 17.8355469,39.6510417 20.6041667,39.6510417 Z M22.3229167,47.671875 L22.3229167,43.3188542 C22.3229167,42.1335612 22.6518424,41.0125781 23.2326367,40.0533008 C21.0850586,41.1074674 18.6968555,40.6769206 17.0959831,39.5255013 L15.1870964,40.0027409 C13.6568359,40.3852344 12.5833333,41.7602344 12.5833333,43.3375456 L12.5833333,46.2395833 C12.5833333,47.1888346 13.352832,47.9583333 14.3020833,47.9583333 L22.3350195,47.9583333 C22.3273388,47.8630362 22.3233016,47.7674804 22.3229167,47.671875 Z M55.8129036,40.0026693 L53.9040169,39.5254297 C51.9041797,40.9638802 49.5434049,40.902793 47.7604883,40.0423437 C48.3454362,41.004056 48.6770833,42.1289779 48.6770833,43.3188542 L48.6770833,47.671875 C48.6770833,47.7683398 48.6722135,47.8636589 48.6649805,47.9583333 L56.6979167,47.9583333 C57.647168,47.9583333 58.4166667,47.1888346 58.4166667,46.2395833 L58.4166667,43.3375456 C58.4166667,41.7602344 57.3431641,40.3852344 55.8129036,40.0026693 Z"
       id="icon-d" />
    <path
       d="M35.5,20.75 C39.6529297,20.75 43.0195312,24.1166016 43.0195312,28.2695312 C43.0195312,32.4224609 39.6529297,35.7890625 35.5,35.7890625 C31.3470703,35.7890625 27.9804687,32.4224609 27.9804687,28.2695312 C27.9804687,24.1166016 31.3470703,20.75 35.5,20.75 Z M43.6256055,36.3165755 L40.7623112,35.6007161 C37.2411654,38.1333659 32.9730794,37.5681836 30.2377604,35.6007161 L27.3744661,36.3165755 C25.0790039,36.8904232 23.46875,38.9527799 23.46875,41.3188542 L23.46875,45.671875 C23.46875,47.0957161 24.6230339,48.25 26.046875,48.25 L44.953125,48.25 C46.3769661,48.25 47.53125,47.0957161 47.53125,45.671875 L47.53125,41.3188542 C47.53125,38.9527799 45.9209961,36.8904232 43.6256055,36.3165755 Z M50.3958333,37.6510417 C53.1644531,37.6510417 55.4088542,35.4066406 55.4088542,32.6380208 C55.4088542,29.869401 53.1644531,27.625 50.3958333,27.625 C47.6272135,27.625 45.3828125,29.869401 45.3828125,32.6380208 C45.3828125,35.4066406 47.6272135,37.6510417 50.3958333,37.6510417 Z M20.6041667,37.6510417 C23.3727865,37.6510417 25.6171875,35.4066406 25.6171875,32.6380208 C25.6171875,29.869401 23.3727865,27.625 20.6041667,27.625 C17.8355469,27.625 15.5911458,29.869401 15.5911458,32.6380208 C15.5911458,35.4066406 17.8355469,37.6510417 20.6041667,37.6510417 Z M22.3229167,45.671875 L22.3229167,41.3188542 C22.3229167,40.1335612 22.6518424,39.0125781 23.2326367,38.0533008 C21.0850586,39.1074674 18.6968555,38.6769206 17.0959831,37.5255013 L15.1870964,38.0027409 C13.6568359,38.3852344 12.5833333,39.7602344 12.5833333,41.3375456 L12.5833333,44.2395833 C12.5833333,45.1888346 13.352832,45.9583333 14.3020833,45.9583333 L22.3350195,45.9583333 C22.3273388,45.8630362 22.3233016,45.7674804 22.3229167,45.671875 Z M55.8129036,38.0026693 L53.9040169,37.5254297 C51.9041797,38.9638802 49.5434049,38.902793 47.7604883,38.0423437 C48.3454362,39.004056 48.6770833,40.1289779 48.6770833,41.3188542 L48.6770833,45.671875 C48.6770833,45.7683398 48.6722135,45.8636589 48.6649805,45.9583333 L56.6979167,45.9583333 C57.647168,45.9583333 58.4166667,45.1888346 58.4166667,44.2395833 L58.4166667,41.3375456 C58.4166667,39.7602344 57.3431641,38.3852344 55.8129036,38.0026693 Z"
       id="icon-e" />
    <mask
       id="icon-b"
       fill="#fff">
      <use
         height="100%"
         width="100%"
         y="0"
         x="0"
         xlink:href="#icon-a"
         id="use881" />
    </mask>
    <clipPath
       id="clipPath2490"
       clipPathUnits="userSpaceOnUse">
      <path
         inkscape:connector-curvature="0"
         style="fill:#5d8367;fill-opacity:1;fill-rule:evenodd"
         id="path2492"
         d="M 0,0 H 70 V 70 H 0 Z" />
    </clipPath>
  </defs>
  <path
     id="path828"
     d="M 4 1 C 2 1 0.667 1.667 0 3 L 0 66 C 0.667 68 2 69 4 69 L 65 69 C 67.667 69 69.333 68 70 66 L 70 3 C 69.333 1.667 67.667 1 65 1 L 4 1 z "
     style="fill:#9c9c00;fill-rule:evenodd;fill-opacity:1" />
  <path
     style="fill:#000000;fill-rule:evenodd;fill-opacity:0.50196081"
     d="M 35 3.5878906 C 34.718026 3.5878907 34.445916 3.7758815 34.216797 4.1152344 C 34.142222 4.18785 34.069739 4.2707071 34.001953 4.3710938 C 33.927378 4.4437097 33.854895 4.5265661 33.787109 4.6269531 C 33.712451 4.699625 33.64012 4.7842637 33.572266 4.8847656 C 33.497718 4.9573775 33.427137 5.0402602 33.359375 5.140625 C 33.284776 5.2132654 33.212337 5.2960549 33.144531 5.3964844 C 33.069956 5.4691017 32.997473 5.5519549 32.929688 5.6523438 C 32.855111 5.7249614 32.78263 5.8078138 32.714844 5.9082031 C 32.640268 5.9808211 32.567786 6.0636727 32.5 6.1640625 C 32.425341 6.2367364 32.353012 6.3213703 32.285156 6.421875 C 32.209375 6.4956673 32.137115 6.5811379 32.068359 6.6835938 C 31.995461 6.7552908 31.923793 6.8352874 31.857422 6.9335938 C 31.782846 7.0062131 31.710365 7.0890615 31.642578 7.1894531 C 31.568002 7.2620728 31.495521 7.3449204 31.427734 7.4453125 C 31.353075 7.5179881 31.280746 7.602618 31.212891 7.703125 C 31.13829 7.7757688 31.065853 7.8585503 30.998047 7.9589844 C 30.923446 8.0316285 30.85101 8.1144092 30.783203 8.2148438 C 30.707449 8.2886108 30.63514 8.3741523 30.566406 8.4765625 C 30.49353 8.5482383 30.421821 8.6282939 30.355469 8.7265625 C 30.280891 8.7991843 30.208412 8.882027 30.140625 8.9824219 C 30.065965 9.0550996 29.993638 9.1397245 29.925781 9.2402344 C 29.85118 9.3128802 29.778745 9.3956568 29.710938 9.4960938 C 29.63636 9.5687165 29.563881 9.6515569 29.496094 9.7519531 C 29.421516 9.8245762 29.349038 9.9074163 29.28125 10.007812 C 29.206723 10.080409 29.136104 10.163339 29.068359 10.263672 C 28.993698 10.336351 28.921373 10.420972 28.853516 10.521484 C 28.778913 10.594132 28.706479 10.676905 28.638672 10.777344 C 28.564069 10.849992 28.491636 10.932763 28.423828 11.033203 C 28.349249 11.105828 28.276773 11.188663 28.208984 11.289062 C 28.134406 11.361688 28.061929 11.444522 27.994141 11.544922 C 27.919479 11.617603 27.847154 11.70222 27.779297 11.802734 C 27.704745 11.875356 27.634171 11.958216 27.566406 12.058594 C 27.491803 12.131243 27.419371 12.214011 27.351562 12.314453 C 27.276984 12.38708 27.204508 12.469912 27.136719 12.570312 C 27.062139 12.64294 26.989664 12.72577 26.921875 12.826172 C 26.847295 12.898799 26.77482 12.981629 26.707031 13.082031 C 26.632369 13.154714 26.560046 13.239326 26.492188 13.339844 C 26.416402 13.413645 26.344149 13.499094 26.275391 13.601562 C 26.202512 13.673246 26.130807 13.753285 26.064453 13.851562 C 25.989873 13.924192 25.917399 14.007018 25.849609 14.107422 C 25.775029 14.180051 25.702555 14.262877 25.634766 14.363281 C 25.560102 14.435966 25.487781 14.520574 25.419922 14.621094 C 25.345317 14.693747 25.272887 14.776506 25.205078 14.876953 C 25.130473 14.949607 25.058044 15.032366 24.990234 15.132812 C 24.914476 15.206589 24.842174 15.292108 24.773438 15.394531 C 24.700558 15.466216 24.628855 15.54625 24.5625 15.644531 C 24.487919 15.717162 24.415446 15.799983 24.347656 15.900391 C 24.272992 15.973078 24.200673 16.057681 24.132812 16.158203 C 24.058207 16.230858 23.985778 16.313613 23.917969 16.414062 C 23.843387 16.486695 23.770916 16.569513 23.703125 16.669922 C 23.628543 16.742554 23.556072 16.825372 23.488281 16.925781 C 23.413751 16.998386 23.343138 17.081295 23.275391 17.181641 C 23.200726 17.254329 23.128407 17.338928 23.060547 17.439453 C 22.98594 17.51211 22.913513 17.594862 22.845703 17.695312 C 22.771097 17.76797 22.69867 17.85072 22.630859 17.951172 C 22.556277 18.023806 22.483807 18.10662 22.416016 18.207031 C 22.341433 18.279666 22.268963 18.362478 22.201172 18.462891 C 22.12618 18.535899 22.054451 18.621571 21.986328 18.722656 C 21.91269 18.79478 21.840432 18.877318 21.773438 18.976562 C 21.69883 19.049221 21.626405 19.131967 21.558594 19.232422 C 21.48401 19.305058 21.411542 19.387867 21.34375 19.488281 C 21.269166 19.560917 21.196698 19.643726 21.128906 19.744141 C 21.054323 19.816777 20.981854 19.899585 20.914062 20 C 20.839396 20.072692 20.76708 20.157283 20.699219 20.257812 C 20.623429 20.331625 20.551183 20.41705 20.482422 20.519531 C 20.409539 20.591223 20.337841 20.671241 20.271484 20.769531 C 20.1969 20.842169 20.124433 20.924974 20.056641 21.025391 C 19.982056 21.098029 19.909589 21.180833 19.841797 21.28125 C 19.767129 21.353944 19.694815 21.43853 19.626953 21.539062 C 19.552344 21.611725 19.479921 21.694463 19.412109 21.794922 C 19.3375 21.867584 19.265078 21.950322 19.197266 22.050781 C 19.121504 22.124567 19.049208 22.210064 18.980469 22.3125 C 18.907585 22.384194 18.835889 22.464207 18.769531 22.5625 C 18.694946 22.63514 18.62248 22.717939 18.554688 22.818359 C 18.480018 22.891056 18.407706 22.975637 18.339844 23.076172 C 18.265234 23.148836 18.192813 23.231569 18.125 23.332031 C 18.050414 23.404672 17.97795 23.487469 17.910156 23.587891 C 17.83557 23.660532 17.763106 23.743328 17.695312 23.84375 C 17.620779 23.916364 17.550172 23.999251 17.482422 24.099609 C 17.407753 24.172307 17.335441 24.256885 17.267578 24.357422 C 17.192968 24.430088 17.120547 24.512817 17.052734 24.613281 C 16.978148 24.685924 16.905684 24.768717 16.837891 24.869141 C 16.763304 24.941784 16.690841 25.024576 16.623047 25.125 C 16.54846 25.197644 16.475997 25.280435 16.408203 25.380859 C 16.333207 25.453877 16.261485 25.539527 16.193359 25.640625 C 16.119717 25.712758 16.047466 25.795275 15.980469 25.894531 C 15.905857 25.967199 15.833439 26.049924 15.765625 26.150391 C 15.691038 26.223036 15.618576 26.305823 15.550781 26.40625 C 15.476194 26.478895 15.403731 26.561682 15.335938 26.662109 C 15.261349 26.734755 15.188888 26.817541 15.121094 26.917969 C 15.046423 26.99067 14.974114 27.075239 14.90625 27.175781 C 14.830457 27.249602 14.758217 27.335006 14.689453 27.4375 C 14.616567 27.509201 14.544875 27.589198 14.478516 27.6875 C 14.403927 27.760147 14.331467 27.84293 14.263672 27.943359 C 14.189083 28.016007 14.116623 28.098789 14.048828 28.199219 C 13.974157 28.271922 13.901849 28.356486 13.833984 28.457031 C 13.759372 28.529703 13.686955 28.612419 13.619141 28.712891 C 13.544528 28.785562 13.472112 28.868278 13.404297 28.96875 C 13.328531 29.042545 13.256242 29.12802 13.1875 29.230469 C 13.114613 29.302172 13.042923 29.382163 12.976562 29.480469 C 12.901974 29.553118 12.829514 29.635895 12.761719 29.736328 C 12.687046 29.809034 12.61474 29.893593 12.546875 29.994141 C 12.472261 30.066814 12.399847 30.149525 12.332031 30.25 C 12.257442 30.32265 12.184984 30.405425 12.117188 30.505859 C 12.042597 30.57851 11.97014 30.661284 11.902344 30.761719 C 11.827805 30.834342 11.757206 30.917207 11.689453 31.017578 C 11.61478 31.090285 11.542475 31.174841 11.474609 31.275391 C 11.399995 31.348066 11.327581 31.430773 11.259766 31.53125 C 11.185175 31.603902 11.112718 31.686673 11.044922 31.787109 C 10.970331 31.859762 10.897875 31.942532 10.830078 32.042969 C 10.755487 32.115622 10.683031 32.198391 10.615234 32.298828 C 10.540547 32.37155 10.468267 32.456065 10.400391 32.556641 C 10.326386 32.628982 10.254802 32.712783 10.1875 32.8125 C 10.112885 32.885177 10.040473 32.96788 9.9726562 33.068359 C 9.8980651 33.141014 9.8256096 33.22378 9.7578125 33.324219 C 9.683221 33.396873 9.6107659 33.479639 9.5429688 33.580078 C 9.468377 33.652733 9.3959223 33.735497 9.328125 33.835938 C 9.2534503 33.908648 9.1811476 33.993195 9.1132812 34.09375 C 9.0374839 34.16758 8.9652508 34.252962 8.8964844 34.355469 C 8.8235941 34.427179 8.7519089 34.507154 8.6855469 34.605469 C 8.6109546 34.678125 8.5385008 34.760886 8.4707031 34.861328 C 8.3961107 34.933985 8.3236572 35.016745 8.2558594 35.117188 C 8.1825339 35.188586 8.1116987 35.270881 8.0449219 35.369141 C 7.9689057 35.442578 7.8951669 35.52863 7.8261719 35.630859 C 7.751579 35.703517 7.6791263 35.786275 7.6113281 35.886719 C 7.535558 35.960523 7.4632756 36.045976 7.3945312 36.148438 C 7.3216401 36.220149 7.2499564 36.30012 7.1835938 36.398438 C 7.1090004 36.471096 7.0365484 36.553852 6.96875 36.654297 C 6.8940737 36.727012 6.8217737 36.811549 6.7539062 36.912109 C 6.6792886 36.984792 6.6068805 37.067482 6.5390625 37.167969 C 6.4644688 37.240628 6.3920175 37.323382 6.3242188 37.423828 C 6.2482806 37.497798 6.1743477 37.582795 6.1054688 37.685547 C 6.0328888 37.757084 5.9625839 37.837617 5.8964844 37.935547 C 5.8218073 38.008263 5.7495086 38.092797 5.6816406 38.193359 C 5.6070223 38.266044 5.5346154 38.348729 5.4667969 38.449219 C 5.3922024 38.52188 5.3197524 38.604629 5.2519531 38.705078 C 5.1773585 38.77774 5.1049087 38.860487 5.0371094 38.960938 C 4.9625146 39.0336 4.8900651 39.116347 4.8222656 39.216797 C 4.7475743 39.289528 4.6753013 39.374021 4.6074219 39.474609 C 4.5334132 39.54696 4.4618358 39.630739 4.3945312 39.730469 C 4.3199121 39.803155 4.2475066 39.885836 4.1796875 39.986328 C 4.1050922 40.058992 4.0326435 40.141736 3.9648438 40.242188 C 3.8902482 40.31485 3.8178 40.397595 3.75 40.498047 C 3.6754044 40.570711 3.6029563 40.653454 3.5351562 40.753906 C 3.4604777 40.826626 3.3881816 40.911151 3.3203125 41.011719 C 3.244511 41.085558 3.1722848 41.170918 3.1035156 41.273438 C 3.0306215 41.345156 2.9589428 41.425111 2.8925781 41.523438 C 2.8179819 41.596103 2.7455348 41.678842 2.6777344 41.779297 C 2.603138 41.851963 2.5306912 41.934701 2.4628906 42.035156 C 2.3895612 42.106563 2.3187326 42.188838 2.2519531 42.287109 C 2.1759329 42.360556 2.1022009 42.446586 2.0332031 42.548828 C 1.9586063 42.621495 1.8861602 42.704231 1.8183594 42.804688 C 1.7438138 42.877327 1.6732263 42.960154 1.6054688 43.060547 C 1.5308717 43.133214 1.4584261 43.215949 1.390625 43.316406 C 1.3160278 43.389074 1.2435825 43.471808 1.1757812 43.572266 C 1.1011009 43.64499 1.0288077 43.729505 0.9609375 43.830078 C 0.88631592 43.90277 0.81391449 43.985437 0.74609375 44.085938 C 0.67149606 44.158607 0.59905148 44.241338 0.53125 44.341797 C 0.45530779 44.415776 0.38138179 44.500751 0.3125 44.603516 C 0.23991624 44.675062 0.16961784 44.755574 0.10351562 44.853516 C 0.067399388 44.888686 0.034768907 44.937348 0 44.978516 L 0 66 C 0.667 68 2 69 4 69 L 33.171875 69 C 33.183127 68.984575 33.195987 68.975352 33.207031 68.958984 C 33.281249 68.886996 33.353306 68.804741 33.421875 68.703125 C 33.496061 68.631167 33.568176 68.548826 33.636719 68.447266 C 33.710905 68.375308 33.78302 68.292967 33.851562 68.191406 C 33.925849 68.119381 33.997778 68.035298 34.066406 67.933594 C 34.141228 67.860787 34.214148 67.774819 34.283203 67.671875 C 34.355724 67.60082 34.427047 67.521294 34.494141 67.421875 C 34.568358 67.349887 34.640415 67.267631 34.708984 67.166016 C 34.783171 67.094058 34.855285 67.011717 34.923828 66.910156 C 34.996797 66.839408 35.067239 66.757587 35.134766 66.658203 C 35.210376 66.585477 35.283737 66.499892 35.353516 66.396484 C 35.428551 66.323703 35.501062 66.239784 35.570312 66.136719 C 35.717323 65.993038 35.857559 65.801177 35.978516 65.541016 C 35.978516 65.541016 49.126374 37.218053 49.177734 37.107422 L 49.179688 37.107422 C 49.719879 35.944234 49.719179 34.05905 49.179688 32.894531 L 49.179688 32.892578 C 49.179688 32.892578 36.029876 4.5715689 35.978516 4.4609375 C 35.71896 3.9017316 35.367121 3.5878904 35 3.5878906 z "
     id="path2875" />
  <path
     d="m 4,1 h 61 c 2.667,0 4.333,0.667 5,2 V 0 H 0 V 3 C 0.667,1.667 2,1 4,1 Z"
     id="path830"
     inkscape:connector-curvature="0"
     style="fill:#9c9c00;fill-opacity:0.50196081;fill-rule:evenodd" />
  <path
     d="m 4,69 h 61 c 2.667,0 4.333,-1 5,-3 v 4 H 0 v -4 c 0.667,2 2,3 4,3 z"
     id="path834"
     inkscape:connector-curvature="0"
     style="fill:#4e4e00;fill-opacity:0.50196081;fill-rule:evenodd" />
  <g
     id="g967"
     transform="translate(-36.947634,22.11364)" />
  <g
     inkscape:label="Layer 1"
     id="layer1"
     transform="matrix(0.10154518,0,0,0.10154518,6.6343692,-3.5903778)">
    <rect
       style="fill:#ffff00;fill-opacity:1;fill-rule:nonzero;stroke:#000000;stroke-width:45.76576996;stroke-linecap:round;stroke-linejoin:round;stroke-miterlimit:4;stroke-dasharray:none;stroke-opacity:1"
       id="rect3134"
       width="308.707"
       height="308.707"
       x="-32.180614"
       y="-695.52069"
       transform="matrix(0.4211113,-0.907009,-0.4211113,-0.907009,0,0)" />
    <g
       id="g3177"
       transform="matrix(-1,0,0,1,558.7067,0)">
      <path
         inkscape:connector-curvature="0"
         id="path3173"
         d="m 279.35334,489.15667 -0.0134,-57.91231 c 17.09506,0 23.98197,-4.12279 23.98197,-10.43755 0,-9.99884 -47.96392,-23.04884 -47.96392,-10.19379 0,11.92743 47.9639,0.0278 47.9639,-10.19382 0,-10.22164 -47.9639,-23.04885 -47.9639,-10.19377 0,11.92744 47.9639,0.0278 47.9639,-10.19381 0,-10.22164 -47.9639,-22.12125 -47.9639,-10.19381 0,12.85509 47.9639,0.0279 47.9639,-10.19377 0,-10.22164 -47.9639,-22.12125 -47.9639,-10.19382 0,12.85505 47.96392,-0.19494 47.96392,-10.19379 0,-6.31476 -6.88689,-10.43755 -23.98197,-10.43755 l 0.0134,-96.97334"
         style="fill:none;fill-opacity:0.75;fill-rule:evenodd;stroke:#000000;stroke-width:6.42363024;stroke-linecap:butt;stroke-linejoin:miter;stroke-miterlimit:4;stroke-opacity:1" />
      <path
         inkscape:connector-curvature="0"
         id="path3171"
         d="m 302.5766,231.84554 h -46.4465 l 23.22327,41.99273 z"
         style="fill:none;fill-opacity:0.75;fill-rule:evenodd;stroke:#000000;stroke-width:6.42363024;stroke-linecap:butt;stroke-linejoin:miter;stroke-miterlimit:4;stroke-opacity:1" />
      <path
         inkscape:connector-curvature="0"
         id="path3169"
         d="M 290.15916,528.01807 H 268.54753 Z"
         style="fill:none;fill-opacity:0.75;fill-rule:evenodd;stroke:#000000;stroke-width:6.42363024;stroke-linecap:butt;stroke-linejoin:miter;stroke-miterlimit:4;stroke-opacity:1" />
      <path
         inkscape:connector-curvature="0"
         id="path3167"
         d="M 295.96499,515.31847 H 262.7417 Z"
         style="fill:none;fill-opacity:0.75;fill-rule:evenodd;stroke:#000000;stroke-width:6.42363024;stroke-linecap:butt;stroke-linejoin:miter;stroke-miterlimit:4;stroke-opacity:1" />
      <path
         inkscape:connector-curvature="0"
         id="path3165"
         d="M 301.77077,502.61887 H 256.93593 Z"
         style="fill:none;fill-opacity:0.75;fill-rule:evenodd;stroke:#000000;stroke-width:6.42363024;stroke-linecap:butt;stroke-linejoin:miter;stroke-miterlimit:4;stroke-opacity:1" />
      <path
         inkscape:connector-curvature="0"
         id="path3140"
         d="M 307.5766,489.91927 H 251.1301 Z"
         style="fill:none;fill-opacity:0.75;fill-rule:evenodd;stroke:#000000;stroke-width:6.42363024;stroke-linecap:butt;stroke-linejoin:miter;stroke-miterlimit:4;stroke-opacity:1" />
      <path
         inkscape:connector-curvature="0"
         sodipodi:nodetypes="ccc"
         style="fill:none;fill-opacity:0.75;fill-rule:evenodd;stroke:#000000;stroke-width:6.42363024;stroke-linecap:butt;stroke-linejoin:miter;stroke-miterlimit:4;stroke-opacity:1"
         d="M 285.15916,540.71767 H 273.54753 Z"
         id="path3175" />
    </g>
  </g>
</svg>
