<?xml version="1.0" encoding="UTF-8" standalone="no"?>
<svg
   xmlns:dc="http://purl.org/dc/elements/1.1/"
   xmlns:cc="http://creativecommons.org/ns#"
   xmlns:rdf="http://www.w3.org/1999/02/22-rdf-syntax-ns#"
   xmlns:svg="http://www.w3.org/2000/svg"
   xmlns="http://www.w3.org/2000/svg"
   xmlns:xlink="http://www.w3.org/1999/xlink"
   xmlns:sodipodi="http://sodipodi.sourceforge.net/DTD/sodipodi-0.dtd"
   xmlns:inkscape="http://www.inkscape.org/namespaces/inkscape"
   inkscape:export-ydpi="96"
   inkscape:export-xdpi="96"
   inkscape:export-filename="/home/sardylan/develop/stationlog/hamutility/hamutility/static/description/icon.png"
   inkscape:version="0.92.3 (2405546, 2018-03-11)"
   sodipodi:docname="icon.svg"
   id="svg844"
   version="1.1"
   viewBox="0 0 140 140"
   height="140"
   width="140">
  <sodipodi:namedview
     pagecolor="#ffffff"
     bordercolor="#666666"
     borderopacity="1"
     objecttolerance="10"
     gridtolerance="10"
     guidetolerance="10"
     inkscape:pageopacity="0"
     inkscape:pageshadow="2"
     inkscape:window-width="1920"
     inkscape:window-height="1009"
     id="namedview846"
     showgrid="false"
     inkscape:zoom="2.8284273"
     inkscape:cx="27.677016"
     inkscape:cy="87.565254"
     inkscape:window-x="0"
     inkscape:window-y="0"
     inkscape:window-maximized="1"
     inkscape:current-layer="svg844" />
  <metadata
     id="metadata848">
    <rdf:RDF>
      <cc:Work
         rdf:about="">
        <dc:format>image/svg+xml</dc:format>
        <dc:type
           rdf:resource="http://purl.org/dc/dcmitype/StillImage" />
        <dc:title></dc:title>
      </cc:Work>
    </rdf:RDF>
  </metadata>
  <defs
     id="defs823">
    <path
       inkscape:connector-curvature="0"
       d="m 4,0 h 61 c 4,0 5,1 5,5 v 60 c 0,4 -1,5 -5,5 H 4 C 1,70 0,69 0,65 V 5 C 0,1 1,0 4,0 Z"
       id="a" />
    <linearGradient
       gradientUnits="userSpaceOnUse"
       y2="70"
       y1="0"
       x2="0"
       x1="70"
       id="c">
      <stop
         id="stop816"
         stop-color="#269396"
         offset="0%" />
      <stop
         id="stop818"
         stop-color="#218689"
         offset="100%" />
    </linearGradient>
    <path
       inkscape:connector-curvature="0"
       d="m 26.971,49.017 c 0,2.879 -2.4,5.212 -5.36,5.212 -2.961,0 -5.361,-2.333 -5.361,-5.212 0,-2.878 2.4,-5.211 5.36,-5.211 2.961,0 5.361,2.333 5.361,5.211 z m 14.704,3.846 C 40.975,40.281 30.61,30.191 17.655,29.511 16.891,29.471 16.25,30.068 16.25,30.812 v 3.912 c 0,0.685 0.543,1.26 1.246,1.304 9.361,0.592 16.864,7.87 17.475,16.99 0.046,0.683 0.637,1.211 1.341,1.211 h 4.024 c 0.766,0 1.38,-0.623 1.339,-1.366 z m 12.074,0.023 C 53.047,33.858 37.299,18.458 17.631,17.772 16.876,17.745 16.25,18.339 16.25,19.074 v 3.912 c 0,0.702 0.572,1.273 1.293,1.302 16.003,0.638 28.848,13.128 29.504,28.684 0.03,0.701 0.617,1.257 1.339,1.257 h 4.023 c 0.757,0 1.367,-0.608 1.34,-1.343 z"
       id="d" />
    <path
       inkscape:connector-curvature="0"
       d="m 26.971,47.017 c 0,2.879 -2.4,5.212 -5.36,5.212 -2.961,0 -5.361,-2.333 -5.361,-5.212 0,-2.878 2.4,-5.211 5.36,-5.211 2.961,0 5.361,2.333 5.361,5.211 z m 14.704,3.846 C 40.975,38.281 30.61,28.191 17.655,27.511 16.891,27.471 16.25,28.068 16.25,28.812 v 3.912 c 0,0.685 0.543,1.26 1.246,1.304 9.361,0.592 16.864,7.87 17.475,16.99 0.046,0.683 0.637,1.211 1.341,1.211 h 4.024 c 0.766,0 1.38,-0.623 1.339,-1.366 z m 12.074,0.023 C 53.047,31.858 37.299,16.458 17.631,15.772 16.876,15.745 16.25,16.339 16.25,17.074 v 3.912 c 0,0.702 0.572,1.273 1.293,1.302 16.003,0.638 28.848,13.128 29.504,28.684 0.03,0.701 0.617,1.257 1.339,1.257 h 4.023 c 0.757,0 1.367,-0.608 1.34,-1.343 z"
       id="e" />
    <mask
       id="b"
       fill="#fff">
      <use
         height="100%"
         width="100%"
         y="0"
         x="0"
         xlink:href="#a"
         id="use825" />
    </mask>
    <path
       inkscape:connector-curvature="0"
       id="icon-a"
       d="m 4,0 c 32.416012,0 54.083607,0 61,0 4,0 5,1 5,5 0,38.048888 0,57.423546 0,60 0,4 -1,5 -5,5 C 61,70 9,70 4,70 1,70 0,69 0,65 0,62.467658 0,41.800521 0,5 0,1 1,0 4,0 Z" />
    <linearGradient
       gradientTransform="translate(61.617647,44.364706)"
       gradientUnits="userSpaceOnUse"
       id="icon-c"
       x1="70"
       x2="0"
       y1="0"
       y2="70">
      <stop
         offset="0%"
         stop-color="#269396"
         id="stop872" />
      <stop
         offset="100%"
         stop-color="#218689"
         id="stop874" />
    </linearGradient>
    <path
       inkscape:connector-curvature="0"
       id="icon-d"
       d="m 35.5,22.75 c 4.15293,0 7.519531,3.366602 7.519531,7.519531 0,4.15293 -3.366601,7.519531 -7.519531,7.519531 -4.15293,0 -7.519531,-3.366601 -7.519531,-7.519531 C 27.980469,26.116602 31.34707,22.75 35.5,22.75 Z m 8.125605,15.566575 -2.863294,-0.715859 c -3.521146,2.53265 -7.789232,1.967468 -10.524551,0 l -2.863294,0.715859 c -2.295462,0.573848 -3.905716,2.636205 -3.905716,5.002279 v 4.353021 c 0,1.423841 1.154284,2.578125 2.578125,2.578125 h 18.90625 c 1.423841,0 2.578125,-1.154284 2.578125,-2.578125 v -4.353021 c 0,-2.366074 -1.610254,-4.428431 -3.905645,-5.002279 z m 6.770228,1.334467 c 2.76862,0 5.013021,-2.244401 5.013021,-5.013021 0,-2.76862 -2.244401,-5.013021 -5.013021,-5.013021 -2.768619,0 -5.013021,2.244401 -5.013021,5.013021 0,2.76862 2.244402,5.013021 5.013021,5.013021 z m -29.791666,0 c 2.768619,0 5.01302,-2.244401 5.01302,-5.013021 0,-2.76862 -2.244401,-5.013021 -5.01302,-5.013021 -2.76862,0 -5.013021,2.244401 -5.013021,5.013021 0,2.76862 2.244401,5.013021 5.013021,5.013021 z m 1.71875,8.020833 v -4.353021 c 0,-1.185293 0.328925,-2.306276 0.90972,-3.265553 -2.147578,1.054166 -4.535781,0.62362 -6.136654,-0.5278 l -1.908887,0.47724 c -1.53026,0.382493 -2.603763,1.757493 -2.603763,3.334805 v 2.902037 c 0,0.949252 0.769499,1.71875 1.71875,1.71875 h 8.032937 c -0.0077,-0.0953 -0.01172,-0.190853 -0.0121,-0.286458 z M 55.812904,40.002669 53.904017,39.52543 c -1.999837,1.43845 -4.360612,1.377363 -6.143529,0.516914 0.584948,0.961712 0.916595,2.086634 0.916595,3.27651 v 4.353021 c 0,0.09647 -0.0049,0.191784 -0.0121,0.286458 h 8.032937 c 0.949251,0 1.71875,-0.769498 1.71875,-1.71875 v -2.902037 c 0,-1.577312 -1.073503,-2.952312 -2.603763,-3.334877 z" />
    <path
       inkscape:connector-curvature="0"
       id="icon-e"
       d="m 35.5,20.75 c 4.15293,0 7.519531,3.366602 7.519531,7.519531 0,4.15293 -3.366601,7.519531 -7.519531,7.519531 -4.15293,0 -7.519531,-3.366601 -7.519531,-7.519531 C 27.980469,24.116602 31.34707,20.75 35.5,20.75 Z m 8.125605,15.566575 -2.863294,-0.715859 c -3.521146,2.53265 -7.789232,1.967468 -10.524551,0 l -2.863294,0.715859 c -2.295462,0.573848 -3.905716,2.636205 -3.905716,5.002279 v 4.353021 c 0,1.423841 1.154284,2.578125 2.578125,2.578125 h 18.90625 c 1.423841,0 2.578125,-1.154284 2.578125,-2.578125 v -4.353021 c 0,-2.366074 -1.610254,-4.428431 -3.905645,-5.002279 z m 6.770228,1.334467 c 2.76862,0 5.013021,-2.244401 5.013021,-5.013021 0,-2.76862 -2.244401,-5.013021 -5.013021,-5.013021 -2.768619,0 -5.013021,2.244401 -5.013021,5.013021 0,2.76862 2.244402,5.013021 5.013021,5.013021 z m -29.791666,0 c 2.768619,0 5.01302,-2.244401 5.01302,-5.013021 0,-2.76862 -2.244401,-5.013021 -5.01302,-5.013021 -2.76862,0 -5.013021,2.244401 -5.013021,5.013021 0,2.76862 2.244401,5.013021 5.013021,5.013021 z m 1.71875,8.020833 v -4.353021 c 0,-1.185293 0.328925,-2.306276 0.90972,-3.265553 -2.147578,1.054166 -4.535781,0.62362 -6.136654,-0.5278 l -1.908887,0.47724 c -1.53026,0.382493 -2.603763,1.757493 -2.603763,3.334805 v 2.902037 c 0,0.949252 0.769499,1.71875 1.71875,1.71875 h 8.032937 c -0.0077,-0.0953 -0.01172,-0.190853 -0.0121,-0.286458 z M 55.812904,38.002669 53.904017,37.52543 c -1.999837,1.43845 -4.360612,1.377363 -6.143529,0.516914 0.584948,0.961712 0.916595,2.086634 0.916595,3.27651 v 4.353021 c 0,0.09647 -0.0049,0.191784 -0.0121,0.286458 h 8.032937 c 0.949251,0 1.71875,-0.769498 1.71875,-1.71875 v -2.902037 c 0,-1.577312 -1.073503,-2.952312 -2.603763,-3.334877 z" />
    <mask
       fill="#fff"
       id="icon-b">
      <use
         id="use881"
         xlink:href="#icon-a"
         x="0"
         y="0"
         width="100%"
         height="100%" />
    </mask>
    <clipPath
       clipPathUnits="userSpaceOnUse"
       id="clipPath2490">
      <path
         d="M 0,0 H 70 V 70 H 0 Z"
         id="path2492"
         style="fill:#5d8367;fill-opacity:1;fill-rule:evenodd"
         inkscape:connector-curvature="0" />
    </clipPath>
  </defs>
  <rect
     y="0"
     x="0"
     height="140"
     width="140"
     id="rect924"
     style="fill:#ffff89;fill-opacity:1;stroke:none;stroke-width:4.59174585;stroke-opacity:1" />
  <path
     style="fill:#000000;fill-opacity:0.23529412;stroke:none;stroke-width:4.59174585;stroke-opacity:1"
     d="M 69.919922 11.541016 L 69.494141 12.472656 C 69.493386 12.470956 69.394531 12.251953 69.394531 12.251953 C 69.392931 12.255553 68.983604 13.151005 68.96875 13.183594 C 68.967994 13.181894 68.869141 12.962891 68.869141 12.962891 L 68.445312 13.892578 C 68.44457 13.890978 68.345703 13.673828 68.345703 13.673828 C 68.344103 13.677428 67.934762 14.574865 67.919922 14.607422 C 67.919162 14.605722 67.81837 14.38478 67.818359 14.384766 C 67.816759 14.388366 67.40741 15.285818 67.392578 15.318359 C 67.391816 15.316659 67.29298 15.095715 67.292969 15.095703 C 67.291369 15.099203 66.883888 15.99499 66.869141 16.027344 C 66.868379 16.025644 66.767578 15.804688 66.767578 15.804688 C 66.765978 15.808188 66.35849 16.703993 66.34375 16.736328 C 66.343007 16.734728 66.244141 16.517578 66.244141 16.517578 C 66.242541 16.521078 65.833169 17.416732 65.818359 17.449219 C 65.817605 17.447519 65.71875 17.228516 65.71875 17.228516 C 65.71715 17.232016 65.30777 18.127685 65.292969 18.160156 C 65.292207 18.158456 65.191417 17.939467 65.191406 17.939453 C 65.189906 17.942953 64.780419 18.838637 64.765625 18.871094 C 64.764862 18.869394 64.666027 18.650406 64.666016 18.650391 C 64.664516 18.653791 64.256843 19.545973 64.242188 19.578125 L 64.142578 19.359375 L 64.140625 19.359375 L 63.716797 20.289062 C 63.716053 20.287463 63.617188 20.070312 63.617188 20.070312 C 63.615687 20.073712 63.206176 20.971504 63.191406 21.003906 C 63.190652 21.002206 63.091797 20.78125 63.091797 20.78125 L 62.666016 21.714844 C 62.665261 21.713144 62.564453 21.492188 62.564453 21.492188 C 62.562953 21.495587 62.157203 22.389789 62.142578 22.421875 C 62.141834 22.420275 62.041016 22.203125 62.041016 22.203125 L 62.039062 22.205078 L 61.615234 23.132812 C 61.614491 23.131213 61.515625 22.914062 61.515625 22.914062 C 61.514125 22.917362 61.104582 23.813366 61.089844 23.845703 C 61.089087 23.844003 60.990234 23.625 60.990234 23.625 C 60.988734 23.6283 60.579185 24.524322 60.564453 24.556641 C 60.563697 24.554941 60.464844 24.335938 60.464844 24.335938 C 60.463344 24.339237 60.055662 25.233493 60.041016 25.265625 C 60.040273 25.264025 59.941406 25.046875 59.941406 25.046875 L 59.939453 25.046875 C 59.937953 25.050175 59.530264 25.944446 59.515625 25.976562 C 59.514875 25.974963 59.414073 25.757827 59.414062 25.757812 C 59.412562 25.761112 59.00299 26.659136 58.988281 26.691406 C 58.987519 26.689706 58.888683 26.468764 58.888672 26.46875 C 58.887172 26.47205 58.479468 27.368308 58.464844 27.400391 C 58.464083 27.398691 58.363281 27.177734 58.363281 27.177734 L 57.9375 28.111328 C 57.936745 28.109628 57.837891 27.890625 57.837891 27.890625 L 57.414062 28.820312 L 57.3125 28.601562 L 56.886719 29.533203 C 56.885964 29.531503 56.787109 29.3125 56.787109 29.3125 C 56.785709 29.3157 56.375999 30.211955 56.361328 30.244141 L 56.261719 30.023438 L 55.837891 30.953125 C 55.83713 30.951425 55.736328 30.732422 55.736328 30.732422 C 55.734928 30.735622 55.327078 31.630128 55.3125 31.662109 C 55.311757 31.660509 55.212891 31.443359 55.212891 31.443359 C 55.211491 31.446459 54.801756 32.342867 54.787109 32.375 C 54.786353 32.3733 54.6875 32.154297 54.6875 32.154297 C 54.6861 32.157397 54.276359 33.055775 54.261719 33.087891 C 54.260965 33.086191 54.160156 32.865234 54.160156 32.865234 C 54.158756 32.868334 53.749006 33.766728 53.734375 33.798828 C 53.733613 33.797128 53.634777 33.578138 53.634766 33.578125 C 53.633366 33.581225 53.225431 34.474062 53.210938 34.505859 C 53.210194 34.504259 53.111328 34.287109 53.111328 34.287109 L 53.109375 34.289062 C 53.107975 34.292163 52.700035 35.185012 52.685547 35.216797 L 52.585938 34.998047 L 52.160156 35.929688 C 52.1594 35.927988 52.060547 35.708984 52.060547 35.708984 C 52.059147 35.711984 51.649367 36.608593 51.634766 36.640625 L 51.533203 36.419922 L 51.109375 37.349609 C 51.108633 37.348009 51.009766 37.130859 51.009766 37.130859 L 51.007812 37.130859 C 51.006512 37.133859 50.598493 38.028714 50.583984 38.060547 L 50.484375 37.841797 L 50.060547 38.773438 C 50.059786 38.771738 49.958984 38.550781 49.958984 38.550781 C 49.957684 38.553781 49.547772 39.452411 49.533203 39.484375 L 49.433594 39.261719 L 49.007812 40.195312 C 49.007058 40.193613 48.90625 39.974609 48.90625 39.974609 C 48.90495 39.977509 48.4969 40.872535 48.482422 40.904297 C 48.481679 40.902697 48.382812 40.685547 48.382812 40.685547 C 48.381512 40.688447 47.971579 41.585272 47.957031 41.617188 C 47.95627 41.615488 47.857432 41.396497 47.857422 41.396484 C 47.856122 41.399384 47.448056 42.294443 47.433594 42.326172 C 47.432833 42.324472 47.332031 42.105469 47.332031 42.105469 C 47.330731 42.108369 46.920782 43.00523 46.90625 43.037109 L 46.806641 42.816406 C 46.805341 42.819306 46.397259 43.7144 46.382812 43.746094 C 46.38207 43.744494 46.28125 43.527344 46.28125 43.527344 C 46.27995 43.530244 45.869984 44.429093 45.855469 44.460938 L 45.755859 44.238281 L 45.330078 45.171875 C 45.329317 45.170175 45.230479 44.949232 45.230469 44.949219 C 45.229169 44.952019 44.81919 45.851 44.804688 45.882812 C 44.803928 45.881113 44.705088 45.662122 44.705078 45.662109 L 44.28125 46.589844 L 44.181641 46.371094 C 44.180441 46.373894 43.770343 47.270957 43.755859 47.302734 C 43.755104 47.301034 43.65625 47.082031 43.65625 47.082031 L 43.230469 48.013672 C 43.229713 48.011972 43.128906 47.792969 43.128906 47.792969 C 43.127706 47.795769 42.717594 48.692866 42.703125 48.724609 C 42.70237 48.722909 42.603516 48.503906 42.603516 48.503906 C 42.602316 48.506606 42.194021 49.400196 42.179688 49.431641 C 42.178945 49.430041 42.080078 49.212891 42.080078 49.212891 L 42.078125 49.214844 C 42.076925 49.217544 41.668622 50.111149 41.654297 50.142578 C 41.653554 50.140978 41.554688 49.923828 41.554688 49.923828 C 41.553488 49.926528 41.143353 50.825729 41.128906 50.857422 C 41.128152 50.855722 41.029297 50.634766 41.029297 50.634766 C 41.028097 50.637466 40.617956 51.536684 40.603516 51.568359 C 40.602761 51.566659 40.501953 51.345703 40.501953 51.345703 C 40.500753 51.348403 40.092478 52.245854 40.078125 52.277344 C 40.077382 52.275744 39.978516 52.058594 39.978516 52.058594 L 39.976562 52.058594 C 39.975363 52.061094 39.567081 52.956806 39.552734 52.988281 C 39.551985 52.986681 39.453136 52.769544 39.453125 52.769531 C 39.451925 52.772031 39.043637 53.667759 39.029297 53.699219 C 39.028537 53.697519 38.927734 53.478516 38.927734 53.478516 L 38.501953 54.410156 C 38.501198 54.408456 38.402344 54.189453 38.402344 54.189453 C 38.401144 54.191953 37.990962 55.089502 37.976562 55.121094 C 37.975808 55.119394 37.875 54.900391 37.875 54.900391 L 37.451172 55.830078 C 37.45043 55.828478 37.351562 55.611328 37.351562 55.611328 C 37.350462 55.613828 36.940165 56.513364 36.925781 56.544922 L 36.826172 56.322266 C 36.825072 56.324666 36.414767 57.224316 36.400391 57.255859 C 36.39963 57.254159 36.300792 57.03517 36.300781 57.035156 C 36.299681 57.037556 35.891247 57.933486 35.876953 57.964844 C 35.876192 57.963144 35.775391 57.744141 35.775391 57.744141 C 35.774291 57.746541 35.365848 58.642486 35.351562 58.673828 C 35.35082 58.672228 35.25 58.455078 35.25 58.455078 C 35.2489 58.457478 34.838575 59.355228 34.824219 59.386719 C 34.823466 59.385019 34.724609 59.166016 34.724609 59.166016 C 34.723509 59.168416 34.313175 60.066182 34.298828 60.097656 C 34.298074 60.095956 34.199219 59.876953 34.199219 59.876953 C 34.198119 59.879353 33.787775 60.777135 33.773438 60.808594 C 33.772675 60.806894 33.673839 60.587904 33.673828 60.587891 C 33.672728 60.590191 33.264202 61.484465 33.25 61.515625 C 33.249257 61.514025 33.150391 61.296875 33.150391 61.296875 L 32.724609 62.230469 C 32.723854 62.228769 32.623047 62.007812 32.623047 62.007812 C 32.621947 62.010112 32.211581 62.91 32.197266 62.941406 C 32.196512 62.939706 32.097656 62.71875 32.097656 62.71875 L 31.671875 63.652344 C 31.67112 63.650644 31.572266 63.431641 31.572266 63.431641 C 31.571166 63.433941 31.162661 64.330124 31.148438 64.361328 C 31.147695 64.359728 31.048828 64.142578 31.048828 64.142578 L 31.046875 64.142578 L 30.623047 65.072266 C 30.6223 65.070666 30.523448 64.853529 30.523438 64.853516 C 30.522437 64.855716 30.113817 65.752029 30.099609 65.783203 C 30.098848 65.781503 29.996094 65.5625 29.996094 65.5625 C 29.995094 65.5647 29.586543 66.462819 29.572266 66.494141 L 29.470703 66.273438 C 29.469703 66.275638 29.061067 67.171988 29.046875 67.203125 C 29.046133 67.201525 28.947266 66.984375 28.947266 66.984375 L 28.945312 66.984375 C 28.944312 66.986575 28.53567 67.882944 28.521484 67.914062 L 28.421875 67.695312 C 28.420875 67.697513 28.010348 68.597633 27.996094 68.628906 C 27.995333 68.627206 27.896495 68.406264 27.896484 68.40625 C 27.895492 68.40845 27.486825 69.306804 27.472656 69.337891 C 27.471895 69.336191 27.371094 69.117188 27.371094 69.117188 C 27.370105 69.119287 26.959552 70.01759 26.945312 70.048828 C 26.944558 70.047128 26.84375 69.828125 26.84375 69.828125 C 26.842774 69.830225 26.434076 70.72676 26.419922 70.757812 C 26.41918 70.756213 26.320312 70.539063 26.320312 70.539062 L 25.894531 71.470703 C 25.893776 71.469003 25.794922 71.25 25.794922 71.25 C 25.79396 71.2521 25.383355 72.150456 25.369141 72.181641 C 25.36838 72.179941 25.269542 71.96095 25.269531 71.960938 L 24.845703 72.890625 L 24.744141 72.669922 C 24.743197 72.672022 24.334438 73.568624 24.320312 73.599609 C 24.319571 73.598009 24.21875 73.380859 24.21875 73.380859 C 24.217813 73.382859 23.80716 74.283319 23.792969 74.314453 C 23.792213 74.312753 23.693359 74.091797 23.693359 74.091797 C 23.692428 74.093797 23.28176 74.994273 23.267578 75.025391 C 23.266822 75.023691 23.167969 74.804688 23.167969 74.804688 C 23.167047 74.806687 22.756364 75.705228 22.742188 75.736328 C 22.741432 75.734628 22.642578 75.515625 22.642578 75.515625 C 22.641667 75.517625 22.232842 76.414395 22.21875 76.445312 C 22.218 76.443713 22.119152 76.226577 22.119141 76.226562 C 22.118238 76.228562 21.7094 77.125348 21.695312 77.15625 C 21.694554 77.15455 21.591797 76.935547 21.591797 76.935547 C 21.5909 76.937547 21.18017 77.836137 21.166016 77.867188 C 21.165262 77.865488 21.066406 77.646484 21.066406 77.646484 C 21.065518 77.648384 20.65477 78.547091 20.640625 78.578125 C 20.63987 78.576425 20.541016 78.357422 20.541016 78.357422 L 20.117188 79.287109 C 20.116446 79.285509 20.017578 79.068358 20.017578 79.068359 L 20.015625 79.068359 C 20.014754 79.070259 19.605852 79.969167 19.591797 80 C 19.591048 79.9984 19.492197 79.77931 19.492188 79.779297 L 19.068359 80.710938 C 19.067599 80.709238 18.966797 80.490234 18.966797 80.490234 C 18.965941 80.492134 18.55513 81.390909 18.541016 81.421875 C 18.540261 81.420175 18.441406 81.201172 18.441406 81.201172 C 18.440558 81.203072 18.029732 82.101864 18.015625 82.132812 C 18.014871 82.131113 17.914062 81.912109 17.914062 81.912109 C 17.913227 81.913909 17.506212 82.811032 17.492188 82.841797 L 17.390625 82.623047 C 17.389794 82.624847 16.978936 83.523775 16.964844 83.554688 C 16.96409 83.552988 16.865234 83.333984 16.865234 83.333984 C 16.86441 83.335784 16.453536 84.234724 16.439453 84.265625 C 16.438692 84.263925 16.339855 84.044935 16.339844 84.044922 C 16.339031 84.046722 15.930017 84.945845 15.916016 84.976562 L 15.814453 84.753906 C 15.813648 84.755706 15.404618 85.654848 15.390625 85.685547 C 15.389883 85.683947 15.291016 85.464844 15.291016 85.464844 C 15.290218 85.466644 14.879296 86.36759 14.865234 86.398438 C 14.86448 86.396738 14.763672 86.177734 14.763672 86.177734 L 14.337891 87.109375 C 14.337137 87.107675 14.238281 86.888672 14.238281 86.888672 C 14.2375 86.890372 13.826546 87.789499 13.8125 87.820312 L 13.712891 87.599609 C 13.71212 87.601309 13.302974 88.496825 13.289062 88.527344 C 13.28832 88.525744 13.189453 88.308594 13.189453 88.308594 C 13.188686 88.310294 12.777702 89.209454 12.763672 89.240234 L 12.664062 89.019531 C 12.663305 89.021231 12.252303 89.920408 12.238281 89.951172 C 12.237527 89.949472 12.136719 89.730469 12.136719 89.730469 C 12.13597 89.732069 11.724952 90.633316 11.710938 90.664062 C 11.710183 90.662363 11.611328 90.441406 11.611328 90.441406 L 11.1875 91.373047 C 11.186758 91.371447 11.087891 91.152344 11.087891 91.152344 C 11.087161 91.153944 10.677989 92.053435 10.664062 92.083984 L 10.5625 91.861328 C 10.561777 91.862928 10.15071 92.764226 10.136719 92.794922 C 10.135965 92.793222 10.037109 92.574219 10.037109 92.574219 L 9.6113281 93.505859 C 9.6105734 93.504159 9.5097656 93.285156 9.5097656 93.285156 C 9.5090589 93.286756 9.0998377 94.184348 9.0859375 94.214844 C 9.0851956 94.213244 8.9863281 93.996094 8.9863281 93.996094 L 8.984375 93.996094 C 8.9836779 93.997594 8.5744397 94.895303 8.5605469 94.925781 C 8.559805 94.924181 8.4609375 94.707031 8.4609375 94.707031 C 8.4602467 94.708531 8.0491172 95.608044 8.0351562 95.638672 C 8.0343972 95.636972 7.9355576 95.417982 7.9355469 95.417969 L 7.5117188 96.349609 L 7.4101562 96.126953 C 7.4094815 96.128453 6.9983199 97.029953 6.984375 97.060547 L 6.8828125 96.837891 C 6.8821495 96.839391 6.4747993 97.739117 6.4609375 97.769531 C 6.4601956 97.767931 6.359375 97.550781 6.359375 97.550781 C 6.3587173 97.552281 5.9475228 98.451862 5.9335938 98.482422 C 5.9328391 98.480722 5.8339844 98.261719 5.8339844 98.261719 L 5.4082031 99.193359 L 5.3085938 98.972656 C 5.3079532 98.974056 4.8986061 99.871982 4.8847656 99.902344 C 4.8840055 99.900644 4.7832031 99.681641 4.7832031 99.681641 C 4.782571 99.683041 4.3732059 100.58099 4.359375 100.61133 C 4.358633 100.60933 4.2597656 100.39258 4.2597656 100.39258 C 4.2591401 100.39358 3.847883 101.29373 3.8339844 101.32422 C 3.8332303 101.32222 3.7324219 101.10352 3.7324219 101.10352 L 3.3066406 102.03711 C 3.3058865 102.03511 3.2070313 101.81445 3.2070312 101.81445 L 2.78125 102.74805 C 2.7804961 102.74605 2.6816406 102.52539 2.6816406 102.52539 L 2.2578125 103.45703 L 2.15625 103.23828 C 2.1556591 103.23928 1.7481684 104.13771 1.734375 104.16797 C 1.7336155 104.16597 1.6308594 103.94727 1.6308594 103.94727 C 1.6302751 103.94827 1.2189383 104.84851 1.2050781 104.87891 C 1.2043242 104.87691 1.1054688 104.6582 1.1054688 104.6582 C 1.1048928 104.6592 0.69354005 105.55944 0.6796875 105.58984 C 0.67893365 105.58784 0.58007813 105.36914 0.58007812 105.36914 C 0.57951179 105.37014 0.1700194 106.26862 0.15625 106.29883 L 0.056640625 106.08008 C 0.05656662 106.08021 0.012572342 106.17561 0 106.20312 L 0 140 L 61.384766 140 L 61.416016 139.93359 C 61.41624 139.93419 61.43285 139.97244 61.445312 140 L 61.585938 140 L 61.941406 139.22266 C 61.942159 139.22466 62.041016 139.44531 62.041016 139.44531 L 62.464844 138.51367 C 62.465587 138.51567 62.564453 138.73243 62.564453 138.73242 L 62.990234 137.80078 C 62.990989 137.80278 63.091797 138.02148 63.091797 138.02148 L 63.515625 137.0918 C 63.516386 137.0938 63.617188 137.3125 63.617188 137.3125 L 64.042969 136.38086 C 64.043725 136.38286 64.142578 136.60156 64.142578 136.60156 L 64.566406 135.67188 C 64.567149 135.67388 64.666016 135.89062 64.666016 135.89062 L 65.091797 134.95898 C 65.092554 134.96098 65.191406 135.17969 65.191406 135.17969 L 65.617188 134.24609 C 65.617944 134.24809 65.71875 134.46875 65.71875 134.46875 L 66.142578 133.53711 C 66.14334 133.53911 66.244141 133.75977 66.244141 133.75977 L 66.667969 132.82812 C 66.668712 132.83013 66.767578 133.04883 66.767578 133.04883 L 67.193359 132.11523 C 67.194114 132.11723 67.292969 132.33594 67.292969 132.33594 L 67.71875 131.4043 C 67.719505 131.4063 67.818359 131.625 67.818359 131.625 L 68.244141 130.69336 C 68.244897 130.69536 68.345703 130.91406 68.345703 130.91406 L 68.769531 129.98438 L 68.869141 130.20312 L 69.292969 129.27344 C 69.293731 129.27544 69.394531 129.49414 69.394531 129.49414 L 69.820312 128.5625 L 69.919922 128.7832 L 96.640625 70.162109 L 69.919922 11.541016 z "
     id="rect1872" />
  <g
     transform="matrix(0.18858027,0,0,0.18858027,17.321987,-1.6664627)"
     id="layer1"
     inkscape:label="Layer 1">
    <rect
       transform="matrix(0.4211113,-0.907009,-0.4211113,-0.907009,0,0)"
       y="-695.52069"
       x="-32.180614"
       height="308.707"
       width="308.707"
       id="rect3134"
       style="fill:#ffff00;fill-opacity:1;fill-rule:nonzero;stroke:#000000;stroke-width:45.76576996;stroke-linecap:round;stroke-linejoin:round;stroke-miterlimit:4;stroke-dasharray:none;stroke-opacity:1" />
    <g
       transform="matrix(-1,0,0,1,558.7067,0)"
       id="g3177">
      <path
         style="fill:none;fill-opacity:0.75;fill-rule:evenodd;stroke:#000000;stroke-width:6.42363024;stroke-linecap:butt;stroke-linejoin:miter;stroke-miterlimit:4;stroke-opacity:1"
         d="m 279.35334,489.15667 -0.0134,-57.91231 c 17.09506,0 23.98197,-4.12279 23.98197,-10.43755 0,-9.99884 -47.96392,-23.04884 -47.96392,-10.19379 0,11.92743 47.9639,0.0278 47.9639,-10.19382 0,-10.22164 -47.9639,-23.04885 -47.9639,-10.19377 0,11.92744 47.9639,0.0278 47.9639,-10.19381 0,-10.22164 -47.9639,-22.12125 -47.9639,-10.19381 0,12.85509 47.9639,0.0279 47.9639,-10.19377 0,-10.22164 -47.9639,-22.12125 -47.9639,-10.19382 0,12.85505 47.96392,-0.19494 47.96392,-10.19379 0,-6.31476 -6.88689,-10.43755 -23.98197,-10.43755 l 0.0134,-96.97334"
         id="path3173"
         inkscape:connector-curvature="0" />
      <path
         style="fill:none;fill-opacity:0.75;fill-rule:evenodd;stroke:#000000;stroke-width:6.42363024;stroke-linecap:butt;stroke-linejoin:miter;stroke-miterlimit:4;stroke-opacity:1"
         d="m 302.5766,231.84554 h -46.4465 l 23.22327,41.99273 z"
         id="path3171"
         inkscape:connector-curvature="0" />
      <path
         style="fill:none;fill-opacity:0.75;fill-rule:evenodd;stroke:#000000;stroke-width:6.42363024;stroke-linecap:butt;stroke-linejoin:miter;stroke-miterlimit:4;stroke-opacity:1"
         d="M 290.15916,528.01807 H 268.54753 Z"
         id="path3169"
         inkscape:connector-curvature="0" />
      <path
         style="fill:none;fill-opacity:0.75;fill-rule:evenodd;stroke:#000000;stroke-width:6.42363024;stroke-linecap:butt;stroke-linejoin:miter;stroke-miterlimit:4;stroke-opacity:1"
         d="M 295.96499,515.31847 H 262.7417 Z"
         id="path3167"
         inkscape:connector-curvature="0" />
      <path
         style="fill:none;fill-opacity:0.75;fill-rule:evenodd;stroke:#000000;stroke-width:6.42363024;stroke-linecap:butt;stroke-linejoin:miter;stroke-miterlimit:4;stroke-opacity:1"
         d="M 301.77077,502.61887 H 256.93593 Z"
         id="path3165"
         inkscape:connector-curvature="0" />
      <path
         style="fill:none;fill-opacity:0.75;fill-rule:evenodd;stroke:#000000;stroke-width:6.42363024;stroke-linecap:butt;stroke-linejoin:miter;stroke-miterlimit:4;stroke-opacity:1"
         d="M 307.5766,489.91927 H 251.1301 Z"
         id="path3140"
         inkscape:connector-curvature="0" />
      <path
         id="path3175"
         d="M 285.15916,540.71767 H 273.54753 Z"
         style="fill:none;fill-opacity:0.75;fill-rule:evenodd;stroke:#000000;stroke-width:6.42363024;stroke-linecap:butt;stroke-linejoin:miter;stroke-miterlimit:4;stroke-opacity:1"
         sodipodi:nodetypes="ccc"
         inkscape:connector-curvature="0" />
    </g>
  </g>
  <g
     transform="translate(-36.947634,92.11364)"
     id="g967" />
</svg>
